<svg width="16" height="15" viewBox="0 0 16 15" fill="none" xmlns="http://www.w3.org/2000/svg">
<path d="M7.90991 7.79326C8.80376 7.79326 9.56261 7.43013 10.1864 6.70388C10.8103 5.97762 11.1222 5.09307 11.1222 4.05024C11.1222 1.53628 10.0514 0.279294 7.90991 0.279294C5.76838 0.279294 4.69762 1.53628 4.69762 4.05024C4.69762 5.07445 5.01419 5.95434 5.64734 6.68991C6.28049 7.42548 7.03468 7.79326 7.90991 7.79326ZM15.0049 13.324L13.3848 9.6927C13.3103 9.5251 13.1892 9.39475 13.0216 9.30164L10.5077 7.98879C10.4332 7.95155 10.3773 7.95155 10.3401 7.98879C9.61382 8.54745 8.80376 8.82678 7.90991 8.82678C7.01605 8.82678 6.21531 8.54745 5.50767 7.98879C5.43319 7.95155 5.36801 7.95155 5.31214 7.98879L2.82611 9.30164C2.65851 9.39475 2.52816 9.5251 2.43505 9.6927L0.842869 13.324C0.712515 13.6033 0.731137 13.864 0.898735 14.1061C1.04771 14.3482 1.27117 14.4692 1.56913 14.4692H14.2507C14.53 14.4692 14.7628 14.3482 14.949 14.1061C15.098 13.8454 15.1166 13.5847 15.0049 13.324Z" fill="#CB2845"/>
</svg>
