<svg width="16" height="17" viewBox="0 0 16 17" fill="none" xmlns="http://www.w3.org/2000/svg">
<path d="M8 13.2031V3.51562C7.14583 3.51562 6.33333 3.72396 5.5625 4.14062C4.8125 4.57812 4.21875 5.17188 3.78125 5.92188C3.36458 6.69271 3.15625 7.50521 3.15625 8.35938C3.15625 9.21354 3.36458 10.026 3.78125 10.7969C4.21875 11.5469 4.8125 12.1406 5.5625 12.5781C6.33333 12.9948 7.14583 13.2031 8 13.2031ZM13.9375 4.92188C14.5417 5.92188 14.8438 7.06771 14.8438 8.35938C14.8438 9.65104 14.5417 10.7969 13.9375 11.7969C13.3125 12.8385 12.4792 13.6719 11.4375 14.2969C10.4375 14.901 9.29167 15.2031 8 15.2031C6.70833 15.2031 5.5625 14.901 4.5625 14.2969C3.52083 13.6719 2.6875 12.8385 2.0625 11.7969C1.45833 10.7969 1.15625 9.65104 1.15625 8.35938C1.15625 7.06771 1.45833 5.92188 2.0625 4.92188C2.6875 3.88021 3.52083 3.04688 4.5625 2.42188C5.5625 1.81771 6.70833 1.51562 8 1.51562C9.29167 1.51562 10.4375 1.81771 11.4375 2.42188C12.4792 3.04688 13.3125 3.88021 13.9375 4.92188Z" fill="white"/>
</svg>
